# xmcd CD database file
#
# Track frame offsets:
#	150
#	10967
#	22047
#	31727
#	43535
#	54200
#	66087
#	75905
#	88162
#	97572
#	109210
#	120015
#	132625
#	145660
#	156107
#	170095
#	183985
#	194505
#	205505
#	218372
#	231967
#	245067
#	258902
#	269595
#	280625
#	294557
#
# Disc length: 4054 seconds
#
# Revision: 0
# Processed by: cddbd v1.5PL3 Copyright (c) Steve Scherf et al.
# Submitted via: CDex 1.50beta10
#
DISCID=5f0fd41a
DTITLE=Silas Hogan - Trouble - The Best Of The Excello Masters
DYEAR=1995
DGENRE=Blues
TTITLE0=I'm Gonna Quit You Pretty Baby
TTITLE1=Trouble At Home Blues
TTITLE2=Your Too Late Baby
TTITLE3=Airport Blues
TTITLE4=Go On Pretty Baby
TTITLE5=Here They Are Again
TTITLE6=Lonesome La La
TTITLE7=Roamin' Woman Blues
TTITLE8=I'm Goin' In The Valley
TTITLE9=Everybody Need Somebody
TTITLE10=Just Give Me A Chance
TTITLE11=Dark Clouds Rollin'
TTITLE12=Early One Morning
TTITLE13=I'm In Love With You Baby
TTITLE14=More Trouble At Home
TTITLE15=Sittin' Here Wondering
TTITLE16=So Glad
TTITLE17=Every Saturday Night
TTITLE18=Baby Please Come Back To Me
TTITLE19=If I Ever Needed You Baby
TTITLE20=Out And Down Blues
TTITLE21=So Long Blues
TTITLE22=Lonesome La La (Alternate Version)
TTITLE23=I'm In Love With You Baby (Alternate Version)
TTITLE24=Sittin' Here Wondering (Alternate Version)
TTITLE25=I'm Goin' In The Valley (Alternate Version)
EXTD=YEAR: 1995
EXTT0=
EXTT1=
EXTT2=
EXTT3=
EXTT4=
EXTT5=
EXTT6=
EXTT7=
EXTT8=
EXTT9=
EXTT10=
EXTT11=
EXTT12=
EXTT13=
EXTT14=
EXTT15=
EXTT16=
EXTT17=
EXTT18=
EXTT19=
EXTT20=
EXTT21=
EXTT22=
EXTT23=
EXTT24=
EXTT25=
PLAYORDER=
